<?xml version="1.0" encoding="UTF-8" standalone="no"?>
<svg
   xmlns:dc="http://purl.org/dc/elements/1.1/"
   xmlns:cc="http://creativecommons.org/ns#"
   xmlns:rdf="http://www.w3.org/1999/02/22-rdf-syntax-ns#"
   xmlns:svg="http://www.w3.org/2000/svg"
   xmlns="http://www.w3.org/2000/svg"
   xmlns:sodipodi="http://sodipodi.sourceforge.net/DTD/sodipodi-0.dtd"
   xmlns:inkscape="http://www.inkscape.org/namespaces/inkscape"
   viewBox="0 0 1000 1000"
   height="1000"
   width="1000"
   version="1.1"
   id="svg2"
   inkscape:version="0.91 r13725"
   sodipodi:docname="LDbot.svg"
   inkscape:export-filename="C:\Users\Zak\Source\graphics\ludumdare\bot\LDbot.png"
   inkscape:export-xdpi="36"
   inkscape:export-ydpi="36">
  <sodipodi:namedview
     pagecolor="#ffffff"
     bordercolor="#666666"
     borderopacity="1"
     objecttolerance="10"
     gridtolerance="10"
     guidetolerance="10"
     inkscape:pageopacity="0"
     inkscape:pageshadow="2"
     inkscape:window-width="1366"
     inkscape:window-height="715"
     id="namedview4145"
     showgrid="false"
     showguides="true"
     inkscape:guide-bbox="true"
     inkscape:zoom="0.38749452"
     inkscape:cx="426.69904"
     inkscape:cy="364.93509"
     inkscape:window-x="1352"
     inkscape:window-y="308"
     inkscape:window-maximized="1"
     inkscape:current-layer="ldlogo" />
  <title
     id="title4182">ludumdare</title>
  <metadata
     id="metadata8">
    <rdf:RDF>
      <cc:Work
         rdf:about="">
        <dc:format>image/svg+xml</dc:format>
        <dc:type
           rdf:resource="http://purl.org/dc/dcmitype/StillImage" />
        <dc:title>ludumdare</dc:title>
      </cc:Work>
    </rdf:RDF>
  </metadata>
  <defs
     id="defs6" />
  <g
     transform="scale(0.8,0.8)"
     id="ldlogo">
    <rect
       style="opacity:1;fill:#000000;fill-opacity:1"
       id="bg"
       width="1250"
       height="1250"
       x="0"
       y="0" />
    <path
       style="fill:#e05030;fill-opacity:1;fill-rule:evenodd"
       d="m 283.49587,481.38616 c -5.60728,0 -11.21438,-4.51342 -11.21438,-13.53577 l 0,-97.33949 -67.27149,0.30429 0,105.5154 c 0,49.88704 37.57463,74.95037 75.15134,74.95037 l 57.87791,0 0,-69.8948 z m 148.38268,-3.3205 c 0,18.04434 -22.42839,18.04434 -22.42839,0 l 0,-71.41563 -63.93475,0 0,73.991 c 0,99.77172 150.30041,99.77172 150.30041,0 l 0,-73.98868 -63.93498,0 0,71.41331 z m 160.18344,-107.25047 0,31.2891 -13.84465,0.43876 c -41.95421,0.37572 -75.61294,34.50544 -75.61294,76.55183 0,42.28166 34.02809,76.57053 76.30744,76.57053 42.28179,0 76.57057,-34.28887 76.57057,-76.57053 l 0,-108.27697 -63.41804,0 z m -13.84465,95.17098 13.84465,0 0,13.10871 c 0,7.21994 -5.67176,13.15228 -13.14774,13.15228 -7.22008,0 -12.88956,-5.93234 -12.88956,-13.15228 0,-6.98239 5.3117,-12.74176 12.19469,-13.10871 z m 170.88536,12.07949 c 0,18.04434 -22.42851,18.04434 -22.42851,0 l 0,-71.41563 -63.93719,0 0,73.991 c 0,99.77172 150.30289,99.77172 150.30289,0 l 0,-73.98868 -63.93719,0 0,71.41331 z m 216.1278,0 c 0,-15.98368 20.1087,-15.72759 20.1087,-0.25829 l 0,73.47598 63.4208,0 0,-76.05582 c 0,-52.84992 -38.1566,-73.21538 -74.2494,-72.96166 -14.1791,0.26077 -29.9043,5.41564 -39.96038,16.24437 -11.60192,-11.60178 -26.29571,-16.24437 -40.73332,-16.24437 -35.83476,0 -73.4742,18.82186 -73.4742,72.96166 l 0,76.05343 63.42053,0 0,-73.47359 c 0,-15.4693 19.851,-15.72539 19.851,0.25829 l 0,73.2153 61.61627,0 0,-73.2153 z"
       id="ludum"
       inkscape:connector-curvature="0" />
    <path
       style="fill:#e08020;fill-opacity:1;fill-rule:evenodd"
       d="m 342.76175,753.71123 76.36263,0 c 116.52645,0 116.52645,-180.46365 0,-180.46365 l -76.36263,0 z m 66.77301,-69.86483 0,-41.50677 10.8773,0 c 22.94514,0 23.20388,41.50677 0,41.50677 z"
       id="d"
       inkscape:connector-curvature="0" />
    <path
       style="fill:#e08020;fill-opacity:1;fill-rule:evenodd"
       d="m 584.4852,604.69825 c -28.98195,-0.41068 -57.02656,17.94734 -68.30985,44.63079 -11.79575,26.29337 -6.39177,59.14459 13.36713,80.16085 14.80457,16.47057 37.17076,25.31498 59.20905,24.19832 l 8.36683,0 0,0.0204 61.87217,0 c -0.0922,-26.43434 0.19134,-52.87313 -0.15231,-79.30035 -1.49068,-29.5055 -22.46533,-56.66406 -50.5169,-65.80393 a 74.34842,74.34842 0 0 0 -23.83612,-3.90641 z m -0.30004,61.67117 c 5.44087,0.0353 10.93729,3.41979 12.3634,9.06382 0.83074,5.47545 0.62542,11.05255 0.54222,16.61571 -5.02103,0.0299 -10.04189,0.0358 -15.04463,-0.18894 -9.78351,-1.42138 -14.04541,-15.01006 -6.71481,-21.70866 2.33755,-2.62121 5.58444,-3.80485 8.85161,-3.78193 z M 734.9057,609.08235 c -40.47269,0 -68.83122,26.55443 -68.83122,67.03155 l 0,77.59733 63.41788,0 0,-70.94712 c 0,-7.93089 4.98861,-13.09709 13.09715,-13.09709 l 15.26138,0 0,-60.58467 z m 103.39918,-4.3841 c -28.9815,-0.41068 -57.02416,17.94516 -68.30749,44.63079 -11.87879,26.46191 -6.30855,59.55544 13.72715,80.56696 14.88064,16.33895 37.23525,24.98971 59.21608,23.81313 l 69.86977,0 -55.2085,-61.67844 55.25687,0 0,-12.77175 c 0,-25.19042 -13.36473,-50.16855 -35.10096,-63.31428 -11.74955,-7.3698 -25.58959,-11.26957 -39.45292,-11.24641 z m 0,61.61823 c 9.43986,-0.38531 16.33214,11.22142 11.18196,19.26724 -4.48801,8.96196 -18.67661,7.96535 -22.72846,-0.83306 -3.87637,-7.93756 2.41602,-18.69045 11.5465,-18.43656 z"
       id="are"
       inkscape:connector-curvature="0" />
  </g>
  <text
     xml:space="preserve"
     style="font-style:normal;font-weight:normal;font-size:45.39996338px;line-height:125%;font-family:sans-serif;letter-spacing:0px;word-spacing:0px;fill:#000000;fill-opacity:1;stroke:none;stroke-width:1px;stroke-linecap:butt;stroke-linejoin:miter;stroke-opacity:1"
     x="393.7193"
     y="701.66077"
     id="text4147"
     sodipodi:linespacing="125%"><tspan
       sodipodi:role="line"
       id="tspan4149"
       x="393.7193"
       y="701.66077"
       style="font-style:normal;font-variant:normal;font-weight:normal;font-stretch:normal;font-size:102.1500473px;font-family:Bungee;-inkscape-font-specification:Bungee;fill:#ffffff;fill-opacity:1">Bot</tspan></text>
  <flowRoot
     xml:space="preserve"
     id="flowRoot4155"
     style="fill:black;stroke:none;stroke-opacity:1;stroke-width:1px;stroke-linejoin:miter;stroke-linecap:butt;fill-opacity:1;font-family:sans-serif;font-style:normal;font-weight:normal;font-size:40px;line-height:125%;letter-spacing:0px;word-spacing:0px"><flowRegion
       id="flowRegion4157"><rect
         id="rect4159"
         width="48.357666"
         height="43.795616"
         x="-45.620438"
         y="494.52554" /></flowRegion><flowPara
       id="flowPara4161"></flowPara></flowRoot></svg>
